<?xml version="1.0" encoding="UTF-8" standalone="no"?>
<!-- Created with Inkscape (http://www.inkscape.org/) -->

<svg
   width="61.590332mm"
   height="61.600998mm"
   viewBox="0 0 61.590332 61.600998"
   version="1.1"
   id="svg5"
   xml:space="preserve"
   xmlns:inkscape="http://www.inkscape.org/namespaces/inkscape"
   xmlns:sodipodi="http://sodipodi.sourceforge.net/DTD/sodipodi-0.dtd"
   xmlns="http://www.w3.org/2000/svg"
   xmlns:svg="http://www.w3.org/2000/svg"><sodipodi:namedview
     id="namedview7"
     pagecolor="#ffffff"
     bordercolor="#999999"
     borderopacity="1"
     inkscape:showpageshadow="0"
     inkscape:pageopacity="0"
     inkscape:pagecheckerboard="0"
     inkscape:deskcolor="#d1d1d1"
     inkscape:document-units="mm"
     showgrid="false"
     inkscape:zoom="0.53795867"
     inkscape:cx="163.58134"
     inkscape:cy="624.5833"
     inkscape:window-width="1920"
     inkscape:window-height="1044"
     inkscape:window-x="1920"
     inkscape:window-y="1369"
     inkscape:window-maximized="1"
     inkscape:current-layer="layer1" /><defs
     id="defs2" /><g
     inkscape:label="Layer 1"
     inkscape:groupmode="layer"
     id="layer1"
     transform="translate(-62.60827,-199.88923)"><path
       style="fill:#000000;stroke:#a59678;stroke-width:0.765;stroke-dasharray:none;stroke-opacity:1"
       d="m 87.438518,260.591 c -11.72418,-2.40416 -20.62268,-10.87648 -23.58652,-22.45686 -0.8309,-3.24652 -1.09569,-8.04466 -0.6323,-11.45789 2.07714,-15.29999 14.76194,-26.4145 30.13502,-26.40452 3.73723,0.002 5.70332,0.2933 9.154362,1.35434 12.64827,3.88879 21.30978,15.65255 21.30702,28.93845 -0.001,4.59007 -1.20748,9.98152 -3.06333,13.68878 -2.90444,5.80191 -8.08764,10.94756 -14.00652,13.90504 -1.9443,0.97151 -6.25999,2.3229 -8.592112,2.69049 -2.70398,0.4262 -8.00144,0.29874 -10.71562,-0.25783 z m 9.3927,-0.13224 c 2.44088,-0.24234 6.613522,-1.4476 9.200522,-2.65755 13.45894,-6.29481 20.21658,-21.51033 15.93216,-35.87297 -4.38983,-14.71603 -19.99407,-23.86852 -34.884292,-20.461 -5.88551,1.34686 -10.63032,3.93559 -14.76945,8.05808 -11.7162,11.6691 -11.7162,30.67389 0,42.34299 3.82973,3.81433 8.57759,6.51502 13.67315,7.77759 4.24736,1.05241 6.63396,1.23124 10.84791,0.81286 z m -13.0877,-18.06153 c -3.62996,-0.0674 -4.00989,-0.12082 -4.56406,-0.64143 -0.60515,-0.56851 -0.81632,-1.99701 -0.44013,-2.97734 0.44602,-1.16232 0.94301,-1.20248 14.88345,-1.20248 h 13.222012 l 0.81405,0.68498 c 1.03541,0.87125 1.13098,2.36078 0.21873,3.40942 l -0.59531,0.68432 -9.789582,0.058 c -5.38427,0.0319 -11.57139,0.0249 -13.74916,-0.0155 z m 23.694552,-1.08025 c 0.72949,-0.90113 0.6504,-2.00123 -0.19149,-2.66346 -0.6837,-0.5378 -0.94665,-0.54837 -13.643432,-0.54837 -14.68023,0 -14.48488,-0.0271 -14.49496,2.00951 -0.004,0.79311 0.4949,1.46455 1.31887,1.77527 0.21828,0.0823 6.27128,0.12761 13.45112,0.10067 l 13.054252,-0.049 z m -27.852742,-8.64531 c -1.22547,-0.66541 -1.45222,-2.66103 -0.42642,-3.75294 l 0.56664,-0.60316 h 13.72424 13.724232 l 0.64943,0.64943 c 0.72016,0.72016 0.88268,2.33214 0.31029,3.07766 -0.7753,1.00981 -1.14523,1.03567 -14.658562,1.02481 -11.02278,-0.009 -13.29655,-0.0737 -13.88985,-0.3958 z m 27.661252,-0.67114 c 0.84194,-0.66227 0.92098,-1.76241 0.19135,-2.66347 l -0.50579,-0.62462 H 93.575088 c -12.7637,0 -13.3818,0.0224 -13.914,0.50403 -0.55589,0.50307 -0.75137,1.84259 -0.35446,2.429 0.5684,0.83977 1.32598,0.88738 14.24777,0.89538 12.752292,0.008 13.008062,-0.002 13.692182,-0.54032 z m -28.087672,-9.31521 c -0.60283,-0.64168 -0.80087,-1.79015 -0.47821,-2.77318 0.4476,-1.36365 0.68869,-1.38616 14.84749,-1.38616 13.452532,0 13.831212,0.0268 14.605552,1.03541 0.51288,0.668 0.40358,2.2509 -0.20922,3.02995 l -0.54837,0.69714 h -13.825302 -13.8253 z m 27.428002,0.0462 c 1.50278,-0.52388 1.84913,-2.19234 0.65077,-3.13498 -0.69887,-0.54972 -0.8417,-0.55463 -14.044372,-0.48222 -12.85328,0.0705 -13.35198,0.0918 -13.71375,0.58674 -0.88554,1.21146 -0.24522,2.8652 1.21208,3.13042 1.5233,0.27724 25.074032,0.18633 25.895272,-0.1 z"
       id="path3671"
       inkscape:export-filename="hamburger.svg"
       inkscape:export-xdpi="96"
       inkscape:export-ydpi="96" /></g></svg>
