<?xml version="1.0" encoding="UTF-8" standalone="no"?>
<!-- Created with Inkscape (http://www.inkscape.org/) -->

<svg
   width="90.787674mm"
   height="84.680878mm"
   viewBox="0 0 90.787674 84.680878"
   version="1.1"
   id="svg5"
   xml:space="preserve"
   xmlns:inkscape="http://www.inkscape.org/namespaces/inkscape"
   xmlns:sodipodi="http://sodipodi.sourceforge.net/DTD/sodipodi-0.dtd"
   xmlns="http://www.w3.org/2000/svg"
   xmlns:svg="http://www.w3.org/2000/svg"><sodipodi:namedview
     id="namedview7"
     pagecolor="#ffffff"
     bordercolor="#999999"
     borderopacity="1"
     inkscape:showpageshadow="0"
     inkscape:pageopacity="0"
     inkscape:pagecheckerboard="0"
     inkscape:deskcolor="#d1d1d1"
     inkscape:document-units="mm"
     showgrid="false"
     inkscape:zoom="0.53795867"
     inkscape:cx="163.58134"
     inkscape:cy="624.5833"
     inkscape:window-width="1920"
     inkscape:window-height="1044"
     inkscape:window-x="1920"
     inkscape:window-y="1369"
     inkscape:window-maximized="1"
     inkscape:current-layer="layer1" /><defs
     id="defs2" /><g
     inkscape:label="Layer 1"
     inkscape:groupmode="layer"
     id="layer1"
     transform="translate(-69.983934,-53.757719)"><path
       style="fill:#ffffff;stroke:#a59678;stroke-width:0.865;stroke-dasharray:none;stroke-opacity:1"
       d="m 103.63065,137.15917 c -0.0838,-0.65484 -0.215,-2.18855 -0.29148,-3.40824 -0.16194,-2.58261 -0.33121,-2.92749 -3.21431,-6.54898 -1.960154,-2.46217 -3.278164,-4.76688 -3.283364,-5.74139 -0.002,-0.27338 -0.14691,-0.43401 -0.33331,-0.36808 -0.99947,0.35353 0.54157,4.1183 2.72112,6.64772 0.7399,0.85868 1.636564,2.13604 1.992564,2.83858 0.81871,1.61565 1.29647,3.76145 0.96812,4.34818 -0.18053,0.32259 -0.28407,0.0496 -0.39733,-1.04779 -0.20633,-1.99914 -1.14012,-3.9365 -2.818744,-5.84812 -1.48651,-1.69285 -2.78901,-4.00264 -3.17112,-5.6235 -0.22942,-0.97319 -0.23412,-0.96463 -0.26022,0.47433 -0.0178,0.98279 0.14638,1.80465 0.49859,2.49549 0.65936,1.29331 0.48143,1.5605 -0.24534,0.36841 -0.37595,-0.61666 -0.54274,-1.34472 -0.54342,-2.37218 l -10e-4,-1.48244 h -1.86611 c -1.59999,0 -2.11721,-0.12818 -3.62689,-0.89881 -2.25269,-1.1499 -3.11133,-2.32752 -3.6094,-4.9502 -0.20207,-1.0641 -0.45197,-2.0166 -0.55532,-2.11667 -0.10335,-0.10006 -0.14481,0.77057 -0.0921,1.93474 0.18786,4.152 2.31935,6.47778 6.80804,7.4286 l 1.7512,0.37096 -1.53732,-0.112 c -2.1041,-0.1533 -4.59506,-1.34886 -5.68959,-2.73082 -1.0734,-1.35528 -1.58074,-2.56728 -1.88128,-4.49421 -0.13046,-0.83648 -0.4212,-1.99712 -0.64609,-2.5792 -0.78974,-2.0441 -0.52543,-5.05294 0.75852,-8.6348 l 0.43964,-1.22646 -0.92416,-1.21072 c -0.50829,-0.6659 -1.00547,-1.5809 -1.10484,-2.03335 -0.13804,-0.62845 -0.28405,-0.781116 -0.61858,-0.646796 -0.24085,0.0967 -1.05098,0.262146 -1.80029,0.367636 -0.74932,0.10549 -1.66413,0.3895 -2.03291,0.63114 -0.83664,0.54819 -1.90676,1.96795 -2.10797,2.79672 -0.14818,0.61034 -0.11509,0.62363 1.26741,0.50898 1.66889,-0.1384 3.10447,-1.08399 3.77251,-2.4849 0.55114,-1.15575 0.78675,-1.13491 1.04508,0.0924 0.37181,1.76644 0.23674,4.10061 -0.28821,4.98081 -1.26973,2.12901 -5.201,3.17286 -7.51104,1.99436 -1.04798,-0.53464 -2.00725,-1.57125 -2.70895,-2.92736 -0.90018,-1.73967 0.0568,-5.44853 1.77021,-6.860886 0.61452,-0.50655 0.84348,-0.8774 0.7278,-1.17886 -0.0928,-0.24191 -0.28213,-0.43983 -0.42067,-0.43983 -0.13854,0 -0.1658,0.1393 -0.0606,0.30955 0.12689,0.20532 0.0495,0.25512 -0.2299,0.14791 -0.28762,-0.11037 -0.72462,0.20864 -1.37787,1.00585 -1.84821,2.255486 -2.63697,4.971966 -1.89272,6.518416 l 0.42439,0.88181 -0.55388,-0.6586 c -1.08289,-1.28763 -0.11916,-4.92687 1.88231,-7.108016 l 0.81436,-0.88746 -0.53943,-1.11431 c -0.30996,-0.64028 -0.53943,-1.64712 -0.53943,-2.36682 0,-1.22857 0.584,-2.81374 1.03661,-2.81374 0.1261,0 0.004,0.44189 -0.27138,0.98198 -0.27535,0.54009 -0.49803,1.34377 -0.49483,1.78594 0.007,0.9814 0.91122,3.05291 1.33247,3.05291 0.19007,0 0.23112,-0.17526 0.10845,-0.46302 -0.10856,-0.25466 -0.25347,-1.13108 -0.32203,-1.94759 -0.11371,-1.35425 -0.0582,-1.55523 0.63209,-2.2896 0.41621,-0.44276 1.09041,-0.87987 1.49822,-0.97135 0.68613,-0.1539 0.71948,-0.12521 0.44671,0.38445 -0.66797,1.24813 0.15031,2.58785 1.85453,3.03631 0.61234,0.16114 0.5976,0.12204 -0.19844,-0.52654 -1.20297,-0.98012 -1.08092,-1.38866 0.13229,-0.44282 1.07644,0.83921 2.09502,1.19502 2.33046,0.81407 0.0815,-0.13186 -0.097,-0.23974 -0.39662,-0.23974 -0.29962,0 -1.02103,-0.47625 -1.60311,-1.05834 -1.06619,-1.06619 -1.30517,-1.88483 -0.77237,-2.64583 0.21857,-0.31218 0.24281,-0.27197 0.11359,0.18844 -0.19097,0.68038 0.21174,1.54935 1.10714,2.38903 0.66118,0.62004 1.84,1.0432 2.1216,0.7616 0.0902,-0.0902 -0.0731,-0.16407 -0.36308,-0.16407 -0.28992,0 -0.80983,-0.30091 -1.15534,-0.66869 -0.82641,-0.87967 -0.82876,-2.22649 -0.006,-3.33955 0.54999,-0.7439 0.56383,-0.81817 0.11907,-0.63869 -0.92438,0.37301 -3.66551,0.47608 -4.76282,0.17908 -1.72001,-0.46552 -2.81691,-1.35295 -3.61184,-2.92206 -0.40018,-0.78992 -0.72203,-1.68277 -0.71522,-1.98409 0.007,-0.32236 0.21102,-0.0399 0.49497,0.68618 0.26542,0.67872 0.73694,1.59124 1.0478,2.02781 0.5926,0.83222 2.48309,1.89934 3.35703,1.89493 0.28148,-0.001 -0.0835,-0.28333 -0.81114,-0.62645 -1.54018,-0.72631 -2.32725,-1.50633 -2.89779,-2.87181 -0.65097,-1.55801 -0.53047,-2.5058 0.44053,-3.46482 l 0.85002,-0.83955 0.17288,1.03047 c 0.10559,0.62937 0.41839,1.21926 0.80362,1.51547 0.96466,0.74176 1.15227,0.58901 0.38968,-0.31728 -0.70646,-0.83958 -0.96583,-2.68531 -0.42438,-3.01995 0.16044,-0.0992 0.20139,0.13498 0.10655,0.6092 -0.27721,1.38602 1.33453,3.50507 2.64509,3.47769 0.4341,-0.009 0.33891,-0.12825 -0.42438,-0.5313 -0.96942,-0.51189 -1.53048,-1.20453 -1.52854,-1.88701 5.6e-4,-0.19147 0.22746,0.0233 0.50426,0.47721 0.2768,0.45393 0.88943,0.95994 1.36141,1.12448 1.0619,0.37018 2.54467,0.38872 2.76355,0.0346 0.0923,-0.14937 -0.1238,-0.26458 -0.49633,-0.26458 -2.45457,0 -4.96195,-2.98228 -4.89392,-5.82083 l 0.0285,-1.19063 0.2081,1.19063 c 0.4465,2.55463 1.55937,4.27286 3.27082,5.05007 1.1716,0.53204 3.20338,0.67349 3.4703,0.24159 0.0988,-0.15992 -0.26467,-0.26458 -0.91892,-0.26458 -3.1086,0 -5.45911,-2.46651 -4.77426,-5.00986 0.15929,-0.59156 0.35088,-1.07556 0.42575,-1.07556 0.0749,0 0.57417,0.29766 1.10955,0.66146 0.76049,0.51676 1.2928,0.65755 2.43336,0.6436 l 1.45994,-0.0179 -1.19183,-0.32162 c -2.38363,-0.64325 -4.57797,-2.70902 -5.43759,-5.119 -0.38394,-1.07639 -0.45457,-3.49239 -0.13384,-4.57783 0.12157,-0.41142 0.19143,0.13865 0.18482,1.45521 -0.008,1.64349 0.12252,2.4124 0.58499,3.43958 1.09726,2.43716 3.23526,4.14779 5.60278,4.48285 0.99653,0.14103 1.35231,0.0588 2.24275,-0.51844 l 1.05833,-0.68607 -1.19062,0.15262 c -3.60789,0.46248 -7.7194,-2.87928 -7.63931,-6.20908 l 0.0286,-1.19063 0.20693,1.22458 c 0.58301,3.45028 3.61079,5.97174 6.88637,5.7348 0.8311,-0.0601 1.83362,-0.32063 2.22782,-0.57892 0.91246,-0.59786 0.74078,-0.78101 -0.36935,-0.39402 -1.08459,0.37809 -3.63926,0.16006 -4.7293,-0.40362 -2.63302,-1.36159 -3.73963,-5.04848 -2.33219,-7.77016 0.67756,-1.31027 2.90131,-2.36466 4.26519,-2.02235 0.76572,0.19219 0.89038,0.63782 0.17841,0.63782 -0.7363,0 -1.63362,1.11609 -1.63362,2.03189 0,1.9299 2.21217,3.15412 5.30025,2.93317 1.02432,-0.0733 1.93038,-0.20124 2.01348,-0.28434 0.0831,-0.0831 -0.21827,-0.54517 -0.66968,-1.02684 -0.70364,-0.75078 -0.82094,-1.07549 -0.82199,-2.27536 -0.003,-3.67733 3.67578,-6.5548 8.12935,-6.35826 1.05865,0.0467 1.92455,0.0101 1.92421,-0.0814 -0.001,-0.38918 -1.83942,-0.88188 -3.30791,-0.88674 -2.13592,-0.007 -3.76413,0.50703 -5.29408,1.67158 -1.93094,1.46977 -2.81292,2.70681 -2.97873,4.17789 -0.11301,1.00264 -0.18555,1.14762 -0.35075,0.70104 -0.39591,-1.07026 0.27006,-2.48465 1.96936,-4.18255 2.19415,-2.19234 3.93582,-2.87165 6.91879,-2.69857 1.16416,0.0675 2.34569,0.21882 2.62562,0.33616 0.41718,0.17488 0.47635,0.1284 0.32816,-0.25779 -0.47968,-1.25003 0.99573,-4.03065 2.55,-4.80582 0.81766,-0.4078 0.81158,-0.39279 -0.18014,0.44458 -1.83882,1.55263 -2.57268,4.26026 -1.50996,5.5711 0.66192,0.81648 0.93693,0.51922 0.42601,-0.46049 -0.4983,-0.9555 -0.50082,-2.15097 -0.006,-3.01593 0.44395,-0.77662 0.50694,-0.58852 0.13261,0.39604 -0.32844,0.86386 0.0828,2.64507 0.81817,3.54405 0.71477,0.87374 0.91169,0.54599 0.20882,-0.34755 -0.31218,-0.39687 -0.62506,-1.23143 -0.6953,-1.85457 -0.34785,-3.0861 4.013124,-4.12949 6.369464,-1.52393 0.47867,0.52929 0.47308,0.53349 -0.53063,0.39887 -0.80627,-0.10815 -1.11841,-0.0211 -1.52141,0.42419 -0.42188,0.46617 -0.46606,0.72597 -0.26312,1.54715 0.22262,0.90082 0.38237,1.0375 1.8314,1.56685 2.00629,0.73294 1.98437,0.73314 1.98437,-0.0177 0,-0.34598 0.1786,-0.77728 0.39688,-0.95844 0.33478,-0.27784 0.39687,-0.22588 0.39687,0.33209 0,1.47788 1.87435,1.90005 3.99261,0.89926 2.63352,-1.24423 4.89224,-1.16472 6.55048,0.23059 0.61619,0.5185 0.8078,0.57547 0.92328,0.27452 0.48554,-1.26529 -2.85948,-2.83164 -4.92659,-2.30695 -0.59613,0.15131 -1.17262,0.22027 -1.28108,0.15324 -0.10845,-0.067 -0.74443,7.7e-4 -1.41328,0.15066 -0.66885,0.14989 -1.51419,0.19772 -1.87853,0.10627 -0.73308,-0.18399 -1.44885,-1.33232 -1.41739,-2.27393 0.0143,-0.42683 0.11313,-0.30106 0.3312,0.42134 0.45555,1.50908 0.82949,1.64853 3.41731,1.27437 1.21646,-0.17589 2.74135,-0.31717 3.38864,-0.31398 1.38154,0.007 3.19033,0.75911 3.75149,1.56027 0.33606,0.4798 0.50355,0.52402 1.11061,0.29321 0.39318,-0.14948 1.09407,-0.27934 1.55754,-0.28856 0.83106,-0.0165 0.83355,-0.0205 0.18121,-0.28436 -0.3638,-0.14718 -1.13771,-0.19747 -1.71979,-0.11177 -0.75139,0.11063 -0.94323,0.0792 -0.66146,-0.10846 0.71557,-0.47651 2.51556,-0.29975 3.77687,0.37089 l 1.20985,0.64328 0.18092,-1.07088 c 0.17927,-1.06109 1.71403,-3.1261 2.32339,-3.1261 0.15713,0 -0.0806,0.38696 -0.52821,0.8599 -1.13136,1.19529 -1.41131,1.83765 -1.37614,3.15761 l 0.0304,1.14187 0.19411,-1.00206 c 0.18701,-0.96541 1.41263,-2.56982 1.9631,-2.56982 0.14685,0 -0.12703,0.40653 -0.60861,0.90339 -0.64414,0.66459 -0.91072,1.215 -1.00847,2.08219 -0.16949,1.5037 0.33751,1.8863 0.53624,0.40467 0.1758,-1.31066 1.37761,-3.12003 2.39947,-3.61247 1.57222,-0.75766 3.34247,0.50112 3.34247,2.37675 v 1.12025 l -0.53947,-0.57905 c -0.68056,-0.73049 -1.93126,-0.75417 -2.63553,-0.0499 -0.63571,0.63571 -0.69656,2.02451 -0.12449,2.84126 0.42244,0.60312 1.85553,1.12349 3.10105,1.12601 0.59494,0.001 0.72761,-0.11599 0.72761,-0.64276 0,-0.35433 -0.11612,-0.94964 -0.25804,-1.32291 -0.22094,-0.58114 -0.18567,-0.67869 0.24538,-0.67869 0.74739,0 1.59883,1.24433 1.60857,2.35079 0.009,0.99532 0.12947,0.94675 0.9221,-0.37102 0.14798,-0.24602 0.63954,-0.49045 1.09234,-0.54318 0.77897,-0.0907 0.86211,-0.009 1.54434,1.51085 0.49788,1.10943 0.67299,1.84693 0.5658,2.38291 -0.10977,0.54885 0.0146,1.03526 0.42444,1.66054 0.57951,0.88405 0.58,0.88421 1.61626,0.51859 0.57012,-0.20115 1.25699,-0.36573 1.52638,-0.36573 0.2694,0 0.68883,-0.30374 0.93207,-0.67498 0.57025,-0.87031 1.6891,-1.44168 2.82308,-1.44168 0.55342,0 1.07678,-0.19736 1.36349,-0.51417 0.25593,-0.2828 0.83993,-0.59597 1.29778,-0.69594 0.45785,-0.1 1.11641,-0.40438 1.46346,-0.67646 0.34704,-0.27207 0.78502,-0.49468 0.97328,-0.49468 0.18827,0 0.51204,-0.16975 0.71951,-0.37722 0.20747,-0.20746 0.78152,-0.56632 1.27567,-0.79746 1.58403,-0.74091 3.6469,-1.9457 5.21566,-3.04613 0.83964,-0.58897 1.64051,-1.07351 1.77971,-1.07674 0.1392,-0.003 0.55074,-0.23872 0.91455,-0.52329 0.68444,-0.53538 1.5875,-0.70412 1.5875,-0.29664 0,0.20781 -3.37896,2.93506 -4.46514,3.60393 -0.45544,0.28046 -1.65409,1.27984 -2.45938,2.05053 -0.2661,0.25466 -0.61464,0.46302 -0.77454,0.46302 -0.15989,0 -0.66591,0.36173 -1.12448,0.80385 -0.45857,0.44211 -1.13589,1.09696 -1.50518,1.4552 -0.36928,0.35825 -0.93482,0.65136 -1.25677,0.65136 -0.40668,0 -0.58535,0.15966 -0.58535,0.52307 0,0.5793 -0.79914,1.17514 -1.92758,1.43722 -0.42821,0.0994 -0.83435,0.4273 -0.96941,0.78254 -0.27626,0.72662 -1.74441,2.01967 -2.29316,2.01967 -0.21288,0 -0.85387,0.47625 -1.42443,1.05834 -0.57056,0.58208 -1.16116,1.05833 -1.31244,1.05833 -0.51948,0 -0.27414,0.56411 0.54518,1.25352 0.73634,0.61958 0.8033,0.79614 0.65461,1.726 -0.13601,0.85056 0.0546,1.58767 1.06548,4.12138 0.67711,1.69706 1.64757,3.91579 2.15656,4.93051 1.51692,3.02409 2.71144,6.37608 2.71144,7.60866 0,0.78041 -0.20918,1.44701 -0.66421,2.11665 -0.36531,0.53761 -0.77782,1.27629 -0.91668,1.64153 -0.1582,0.4161 -0.52765,0.72109 -0.98944,0.81681 -0.40532,0.084 -1.17286,0.2815 -1.70562,0.43885 -1.73598,0.512716 -3.09627,-0.30038 -4.15238,-2.48203 -0.47521,-0.98164 -0.94449,-1.43479 -2.36608,-2.28471 -0.97531,-0.58311 -2.42814,-1.64362 -3.2285,-2.35669 -1.43238,-1.27615 -2.76389,-2.09491 -4.40564,-2.70905 -0.45857,-0.17154 -1.1044,-0.59998 -1.43518,-0.95208 -0.78221,-0.83263 -1.25085,-0.80765 -3.18731,0.16987 -1.53008,0.77238 -1.64842,0.90464 -2.54495,2.84427 -1.3116,2.83762 -3.49638,9.648986 -3.69041,11.505386 -0.0892,0.85325 -0.008,2.53666 0.18157,3.7537 0.27563,1.7718 0.27885,2.5371 0.0164,3.88359 -0.45555,2.33697 -1.73285,5.33358 -3.13953,7.3655 -0.65483,0.94588 -1.2777,2.07698 -1.38415,2.51354 -0.10645,0.43656 -0.27953,1.00211 -0.38464,1.25677 -0.16671,0.40395 -0.0258,0.46302 1.10455,0.46302 0.7126,0 1.97912,-0.17803 2.8145,-0.39562 3.12586,-0.81418 4.59498,-2.0516 4.86998,-4.10191 0.12059,-0.89904 0.0307,-1.14104 -0.6922,-1.86396 -0.76195,-0.76195 -0.95107,-0.82329 -2.28245,-0.74037 -0.79841,0.0497 -1.45149,0.001 -1.4513,-0.10804 2e-4,-0.10914 0.46283,-0.6609 1.02807,-1.22614 2.00577,-2.00577 3.90966,-1.9987 5.73461,0.0213 0.96379,1.0668 0.97472,1.10403 0.84726,2.88541 -0.20989,2.93344 -1.82232,5.48444 -4.69916,7.43446 l -0.66146,0.44836 0.92604,0.0165 c 0.50933,0.009 1.58089,0.32893 2.38125,0.71084 1.67808,0.80073 3.33907,0.89408 4.82865,0.27139 0.5457,-0.22812 0.99219,-0.35549 0.99219,-0.28304 0,0.25765 -2.26025,1.15266 -2.92537,1.15838 -0.37203,0.003 -1.91984,0.49089 -3.43959,1.08377 -4.13357,1.6126 -6.78217,2.17345 -9.64234,2.04183 -1.67296,-0.077 -2.75506,-0.2774 -3.63802,-0.67377 -1.38471,-0.62162 -1.64595,-0.40931 -0.55362,0.44992 1.95702,1.53938 5.91999,1.76976 11.86456,0.68972 2.03729,-0.37015 4.47807,-0.65844 5.42396,-0.64065 l 1.71979,0.0323 -1.85208,0.22699 c -1.01865,0.12484 -3.68023,0.5423 -5.91462,0.92769 -5.01696,0.86533 -8.02224,0.80323 -10.06553,-0.20798 l -1.29356,-0.64018 -0.11693,1.41005 c -0.14459,1.74349 -1.08364,3.17035 -3.10081,4.71161 -0.78813,0.60218 -1.51573,1.32189 -1.6169,1.59935 -0.13316,0.36517 -0.22605,0.17568 -0.33638,-0.68613 z m -7.937164,-20.97413 c 0.17427,-0.17865 0.39212,-0.63228 0.48411,-1.00806 0.14387,-0.58773 -0.003,-0.80962 -1.05141,-1.5875 -0.67026,-0.49734 -1.89092,-1.59055 -2.71258,-2.42934 -0.92016,-0.93935 -1.58835,-1.43064 -1.7398,-1.27919 -0.50254,0.50254 2.70496,3.69547 4.79871,4.77691 0.33988,0.17555 0.55362,0.38354 0.47497,0.46219 -0.28334,0.28334 -2.53212,-1.27051 -4.08257,-2.82096 l -1.58279,-1.58279 -0.32758,0.79085 c -0.27401,0.66153 -0.2537,0.9843 0.12421,1.97384 0.47507,1.24396 2.16458,2.92205 3.15299,3.13168 0.81341,0.17252 2.09315,-0.0498 2.46174,-0.42763 z m -10.69686,-4.14125 c -0.25285,-1.6706 -0.13736,-2.86197 0.56351,-5.81313 0.49245,-2.07353 0.17429,-1.81899 -0.62677,0.50143 -0.3742,1.08395 -0.60393,2.40455 -0.62136,3.57187 -0.0341,2.28046 0.28196,4.01641 0.66197,3.6364 0.178,-0.17799 0.18566,-0.81955 0.0226,-1.89657 z m -0.18946,-10.32564 c -0.22202,-0.42934 -0.40367,-1.14372 -0.40367,-1.5875 0,-0.443786 -0.11906,-0.806886 -0.26458,-0.806886 -0.44958,0 -0.29021,1.409926 0.26168,2.315096 0.65473,1.07382 0.95072,1.13154 0.40657,0.0793 z m -0.29027,-11.805996 c 0.22867,-0.22867 0.41728,-0.61563 0.41912,-0.8599 0.005,-0.67876 1.47743,-3.43438 2.50492,-4.6883 1.15522,-1.40979 3.39951,-2.90809 5.80978,-3.87864 l 1.86841,-0.75236 -1.85208,0.15795 c -2.69817,0.23009 -4.49946,0.79462 -5.14202,1.61151 -0.30059,0.38214 -0.54653,0.81245 -0.54653,0.95624 0,0.1438 -0.53319,1.00866 -1.18488,1.92191 -1.23872,1.73592 -2.41707,2.79236 -4.30318,3.85799 -1.24784,0.70501 -1.46332,1.44188 -0.53121,1.81655 0.95841,0.38523 2.5042,0.31052 2.95767,-0.14295 z m -7.59339,-0.53783 c -0.0879,-0.0879 -0.31612,-0.0973 -0.50712,-0.0209 -0.21106,0.0845 -0.14837,0.14716 0.15986,0.15986 0.27891,0.0115 0.43518,-0.0511 0.34726,-0.13897 z M 122.5035,67.712844 c 0,-0.069 -0.38695,-0.32526 -0.85989,-0.56942 -0.47295,-0.24415 -1.24685,-0.86579 -1.71979,-1.38141 -0.47295,-0.51562 -0.8599,-0.7795 -0.8599,-0.58639 0,0.56969 2.26037,2.66272 2.8756,2.66272 0.31019,0 0.56398,-0.0565 0.56398,-0.1255 z m 1.10901,-0.67476 c -0.48146,-0.29354 -1.07677,-0.91317 -1.32292,-1.37697 -0.9546,-1.79868 -2.58186,-2.88376 -3.09048,-2.06079 -0.19997,0.32355 0.87129,1.93053 1.73435,2.60171 1.04733,0.81447 2.18612,1.34988 2.89296,1.36014 0.63208,0.009 0.62258,-0.0141 -0.21391,-0.52409 z m -4.25384,-0.6767 c -0.30764,-0.39109 -0.55933,-0.87361 -0.55933,-1.07226 0,-0.19866 -0.12212,-0.3612 -0.27138,-0.3612 -0.15153,0 -0.0785,0.37976 0.16536,0.8599 0.54147,1.06611 0.93673,1.57258 1.09993,1.40939 0.0686,-0.0686 -0.12695,-0.44474 -0.43458,-0.83583 z m -23.842674,0.33988 c 0,-0.11607 -0.58964,-0.80068 -1.31031,-1.52135 -1.69274,-1.69273 -2.75885,-1.79199 -4.16325,-0.38759 -1.03946,1.03946 -1.03687,1.44914 0.0113,1.79855 1.02754,0.34251 1.94614,0.0341 2.40222,-0.80641 l 0.39297,-0.72425 0.0106,0.92605 0.0106,0.92604 h 1.32292 c 0.7276,0 1.32291,-0.095 1.32291,-0.21104 z m 20.845934,-2.89782 c -0.50486,-0.78008 -1.98872,-1.52565 -2.98655,-1.50061 -0.43656,0.011 -1.27,0.16653 -1.85209,0.34571 l -1.05833,0.32578 2.21452,0.17722 c 1.479,0.11835 2.48959,0.34762 3.04271,0.69029 1.07443,0.66564 1.0946,0.66443 0.63974,-0.0384 z m -9.20426,-2.58337 c -0.28779,-0.18865 -0.17871,-0.21914 0.39687,-0.11091 0.56162,0.1056 1.17114,-0.0523 2.08418,-0.53998 0.70973,-0.37908 1.35211,-0.62754 1.42751,-0.55214 0.17271,0.17271 -2.57903,1.46664 -3.11481,1.46466 -0.21828,-7.9e-4 -0.57547,-0.11854 -0.79375,-0.26163 z"
       id="path1615"
       inkscape:export-filename="logo.svg"
       inkscape:export-xdpi="96"
       inkscape:export-ydpi="96" /></g></svg>
